<?xml version="1.0" encoding="UTF-8"?>
<svg id="Layer_1" data-name="Layer 1" xmlns="http://www.w3.org/2000/svg" viewBox="0 0 459.96 474.67">
  <defs>
    <style>
      .cls-1 {
        fill: #fff;
      }

      .cls-2 {
        fill: #a62264;
      }
    </style>
  </defs>
  <path class="cls-1" d="M158.65,7.94s22.65,5.49,32.26,21.28V161.69l44.61,39.12,48.48-43.93V25.79s16.73-18.53,32.51-17.85V167.87l-59.03,64.52-2.75,225.81-17.16,16.47-19.22-15.79-.69-230.62-59.03-55.6V7.94Z"/>
  <path class="cls-2" d="M346.03,1.08s19.9-.04,33.63,6.85V274.25s19.22,5.49,51.48-87.85c0,0,19.22,11.67,28.83,11.67,0,0-14.41,72.07-109.82,166.1L346.03,1.08Z"/>
  <path class="cls-2" d="M72.85,13.09V45.7s-36.72,9.61-40.5,75.5c0,0,7.21,19.56,32.6,28.83,0,0,13.73-1.37,35-29.17V3.48s20.25-5.83,29.17-2.4l-1.72,148.94-27.45,29.51,27.11,55.94,2.06,136.24-30.54-31.23,1.03-88.54s-13.38-44.27-30.2-54.91c0,0-17.85,9.27-20.25,17.85,0,0-2.06,13.38,31.57,55.94v46.33S26.52,253.66,14.51,214.54c0,0,4.8-18.19,26.08-38.09,0,0-42.9-32.95-40.5-52.85C.1,123.6,3.19,46.04,72.85,13.09Z"/>
</svg>